# Blender v3.3.0 OBJ File: 'room.blend'
# www.blender.org
mtllib Wall.mtl
o Wall_Cube
v 9.611878 3.382328 -7.684915
v 9.611878 -1.500000 -7.684915
v 9.611878 3.382328 7.684915
v 9.611878 -1.500000 7.684915
v -9.611878 3.382328 -7.684915
v -9.611878 -1.500000 -7.684915
v -9.611878 3.382328 7.684915
v -9.611878 -1.500000 7.684915
vt -0.833692 1.208062
vt -2.500639 1.208062
vt -2.500639 -0.203141
vt -0.833692 -0.203140
vt 3.498779 1.208062
vt 2.166017 1.208062
vt 2.166016 -0.203140
vt 3.498778 -0.203140
vt 0.499070 1.208062
vt 0.499070 -0.203140
vn 0.0000 0.0000 -1.0000
vn 1.0000 0.0000 0.0000
vn -1.0000 0.0000 0.0000
vn 0.0000 0.0000 1.0000
usemtl Material
s off
f 4/1/1 8/2/1 7/3/1 3/4/1
f 8/5/2 6/6/2 5/7/2 7/8/2
f 2/9/3 4/1/3 3/4/3 1/10/3
f 6/6/4 2/9/4 1/10/4 5/7/4
