# Blender 3.3.0
# www.blender.org
o Cube
v 1.000000 1.000000 -1.000000
v 1.000000 -1.000000 -1.000000
v 1.000000 1.000000 1.000000
v 1.000000 -1.000000 1.000000
v -1.000000 1.000000 -1.000000
v -1.000000 -1.000000 -1.000000
v -1.000000 1.000000 1.000000
v -1.000000 -1.000000 1.000000
v 0.374642 1.714280 0.374642
v -0.374642 1.714280 0.374642
v 0.374642 1.714280 -0.374642
v -0.374642 1.714280 -0.374642
vn -0.0000 0.6587 0.7524
vn -0.0000 -0.0000 1.0000
vn -1.0000 -0.0000 -0.0000
vn -0.0000 -1.0000 -0.0000
vn 1.0000 -0.0000 -0.0000
vn -0.0000 -0.0000 -1.0000
vn -0.0000 1.0000 -0.0000
vn -0.7524 0.6587 -0.0000
vn 0.7524 0.6587 -0.0000
vn -0.0000 0.6587 -0.7524
vt 0.348322 0.713829
vt 0.383847 0.750065
vt 0.381648 0.971552
vt 0.391154 0.013842
vt 0.126835 0.711630
vt 0.641570 0.716739
vt 0.605334 0.752263
vt 0.863058 0.718938
vt 0.612641 0.016041
vt 0.603136 0.973751
vt 0.386757 0.456817
vt 0.350521 0.492341
vt 0.129033 0.490143
vt 0.388956 0.235330
vt 0.643769 0.495252
vt 0.608245 0.459015
vt 0.865256 0.497450
vt 0.610443 0.237528
vt 0.537123 0.646441
vt 0.537947 0.563463
vt 0.454144 0.645618
vt 0.454968 0.562639
s 0
f 3/6/1 10/20/1 7/15/1
f 3/6/2 8/17/2 4/8/2
f 7/16/3 6/14/3 8/18/3
f 2/4/4 8/18/4 6/14/4
f 1/2/5 4/10/5 2/3/5
f 5/12/6 2/5/6 6/13/6
f 12/22/7 9/19/7 11/21/7
f 7/16/8 12/22/8 5/11/8
f 1/2/9 9/19/9 3/7/9
f 5/12/10 11/21/10 1/1/10
f 3/6/1 9/19/1 10/20/1
f 3/6/2 7/15/2 8/17/2
f 7/16/3 5/11/3 6/14/3
f 2/4/4 4/9/4 8/18/4
f 1/2/5 3/7/5 4/10/5
f 5/12/6 1/1/6 2/5/6
f 12/22/7 10/20/7 9/19/7
f 7/16/8 10/20/8 12/22/8
f 1/2/9 11/21/9 9/19/9
f 5/12/10 12/22/10 11/21/10
